<?xml version="1.0" standalone="no"?>
<!DOCTYPE svg PUBLIC "-//W3C//DTD SVG 20010904//EN"
 "http://www.w3.org/TR/2001/REC-SVG-20010904/DTD/svg10.dtd">
<svg version="1.0" xmlns="http://www.w3.org/2000/svg"
 width="700.000000pt" height="700.000000pt" viewBox="0 0 700.000000 700.000000"
 preserveAspectRatio="xMidYMid meet">
<metadata>
Created by potrace 1.11, written by Peter Selinger 2001-2013
</metadata>
<g transform="translate(0.000000,700.000000) scale(0.100000,-0.100000)"
fill="#000000" stroke="none">
<path d="M1255 6228 c-12 -80 -8 -77 -97 -80 l-81 -3 -4 -30 c-2 -16 -6 -39
-8 -50 -2 -11 -4 -23 -4 -27 -1 -5 -37 -8 -80 -8 -89 0 -81 8 -96 -101 -3 -25
-8 -57 -10 -70 -2 -13 -6 -42 -10 -64 -3 -22 -7 -53 -10 -70 -3 -16 -7 -46 -9
-65 -3 -19 -14 -94 -25 -166 -12 -72 -23 -146 -25 -165 -3 -19 -12 -84 -21
-144 -16 -110 -18 -125 -30 -200 -4 -22 -8 -52 -10 -68 -6 -39 -45 -307 -50
-337 -18 -112 -25 -161 -30 -200 -3 -25 -10 -72 -15 -105 -5 -33 -12 -78 -15
-100 -3 -22 -10 -65 -15 -95 -5 -30 -12 -75 -15 -100 -3 -25 -12 -85 -20 -135
-8 -49 -16 -110 -20 -135 -3 -25 -10 -70 -15 -100 -5 -30 -12 -77 -15 -104 -3
-27 -8 -52 -9 -55 -2 -3 -7 -35 -10 -70 -4 -36 -9 -67 -10 -70 -2 -3 -6 -28
-10 -56 -3 -27 -12 -95 -20 -150 -8 -55 -18 -118 -21 -140 -4 -22 -10 -67 -15
-100 -5 -33 -12 -78 -15 -100 -4 -22 -8 -51 -10 -65 -4 -21 -43 -291 -60 -410
-3 -19 -7 -46 -10 -60 -3 -14 -7 -41 -9 -60 -3 -19 -9 -64 -15 -100 -6 -36
-13 -83 -15 -105 -5 -36 -14 -93 -21 -135 -1 -8 -6 -40 -10 -70 -4 -30 -9 -64
-11 -75 -2 -11 -7 -40 -9 -65 -3 -25 -10 -70 -15 -100 -6 -30 -12 -76 -15
-101 -3 -26 -8 -57 -10 -70 -3 -13 -7 -41 -10 -64 -3 -22 -12 -80 -20 -130 -8
-49 -16 -110 -20 -135 -3 -25 -10 -70 -15 -100 -5 -30 -12 -77 -15 -105 -4
-27 -9 -58 -11 -67 -5 -17 18 -18 380 -18 l386 0 4 22 c3 13 8 40 11 61 l6 37
75 0 c79 0 104 11 96 42 -2 10 2 26 9 35 10 12 10 14 1 9 -6 -4 -12 -4 -12 1
1 25 21 32 94 35 61 2 80 6 81 18 1 8 5 40 9 70 4 30 9 69 12 85 7 59 15 110
18 130 3 11 5 23 5 27 1 5 562 4 592 -1 4 -1 10 -29 14 -63 4 -35 8 -70 10
-79 1 -8 6 -42 10 -75 12 -98 13 -106 25 -194 7 -47 13 -94 15 -105 2 -11 4
-28 4 -37 1 -17 26 -18 387 -18 l386 0 -4 35 c-2 19 1 37 7 39 6 3 5 5 -2 5
-7 1 -13 10 -13 21 0 18 8 20 98 22 57 2 96 7 96 13 -1 6 -5 31 -8 58 l-7 47
97 0 96 0 -6 53 c-3 28 -12 93 -21 142 -8 50 -15 101 -15 115 l0 26 328 -1
327 0 0 -285 1 -285 634 -1 c658 -2 699 0 875 42 39 9 86 23 105 32 106 45
171 81 229 124 36 27 71 46 78 44 7 -3 12 0 10 7 -1 7 6 12 15 12 9 0 20 4 25
9 4 5 3 6 -4 2 -7 -4 -13 -5 -13 -3 0 11 82 57 92 51 7 -4 8 -3 4 4 -4 7 11
22 36 38 24 14 56 35 72 47 16 11 35 20 42 20 7 0 11 3 9 7 -2 3 5 13 17 21
23 16 89 84 100 103 6 10 102 13 420 14 227 0 419 1 426 1 9 1 12 111 12 516
0 405 -3 515 -12 516 -7 1 -146 3 -308 4 -353 3 -326 1 -326 23 -3 51 -44 172
-82 242 -60 108 -173 225 -263 270 -51 27 -53 33 -16 55 130 74 237 189 297
318 44 96 59 152 77 287 7 58 7 1668 -1 1770 -35 468 -232 771 -579 891 -181
62 -178 62 -924 66 l-683 4 -1 -25 c0 -14 -1 -41 -2 -58 l-1 -33 -90 -5 -91
-5 2 -57 1 -58 -91 0 -92 0 1 -1837 c0 -1011 -3 -1841 -8 -1844 -9 -6 -798 -3
-804 3 -4 5 -36 205 -59 369 -5 39 -26 180 -31 214 -3 17 -7 41 -9 55 -2 14
-7 45 -10 70 -3 25 -10 70 -15 100 -5 30 -12 75 -15 100 -3 25 -10 70 -15 100
-5 30 -11 73 -14 95 -3 22 -7 56 -10 75 -8 51 -36 235 -47 310 -5 36 -12 83
-15 105 -5 39 -7 54 -18 121 -3 17 -8 46 -10 65 -3 19 -14 99 -26 179 -12 80
-26 174 -31 210 -5 36 -12 77 -14 91 -3 14 -7 41 -9 60 -7 46 -21 146 -46 314
-23 150 -27 178 -35 240 -3 22 -10 65 -15 95 -5 30 -12 78 -15 105 -4 28 -8
57 -10 65 -2 8 -7 35 -10 60 -3 25 -12 86 -20 135 -7 50 -16 106 -19 125 -2
19 -14 100 -26 180 -11 80 -25 175 -31 213 l-11 67 -523 0 -523 0 -7 -42z
m3717 -987 c52 -25 66 -36 99 -81 68 -92 67 -85 65 -1014 0 -457 -5 -837 -9
-843 -6 -10 -48 -13 -153 -13 l-144 0 0 991 0 992 49 -6 c27 -3 69 -15 93 -26z
m-3367 -1811 c7 -62 11 -87 20 -146 3 -22 8 -56 10 -75 1 -19 10 -86 19 -149
18 -131 24 -175 32 -245 3 -27 19 -142 34 -255 16 -112 28 -206 26 -207 -5 -5
-325 -9 -322 -4 2 3 7 37 11 74 3 37 8 76 10 85 1 9 5 37 9 62 3 25 13 99 21
165 17 128 20 146 29 213 3 23 8 61 11 85 3 23 8 53 10 67 2 14 7 48 10 75 7
65 35 274 40 300 2 11 4 36 5 55 l2 35 8 -40 c4 -22 11 -65 15 -95z"/>
</g>
</svg>
